<svg width="53" height="42" viewBox="0 0 53 42" fill="none" xmlns="http://www.w3.org/2000/svg">
<path d="M48.9808 37C47.0552 33.2055 44.6319 29.6807 41.7739 26.5172C35.5409 19.5793 27.1033 13.8691 16.7008 9.53163C7.45075 5.67817 0.0738218 4.41504 0.000732422 4.40155L0.752026 0C1.07158 0.0539654 8.71876 1.366 18.4414 5.41677C29.4694 10.0072 38.4491 16.107 45.1275 23.5474C48.2498 27.0048 50.8972 30.8568 53.0007 35.0033L48.9808 37Z" fill="#1D1D1B"/>
<path d="M26.5007 32C24.424 32 22.3938 31.3841 20.6671 30.2303C18.9403 29.0765 17.5945 27.4365 16.7998 25.5178C16.0052 23.5991 15.7973 21.4878 16.2026 19.4509C16.6079 17.4141 17.6081 15.5432 19.0767 14.0748C20.5453 12.6064 22.4164 11.6065 24.4533 11.2016C26.4902 10.7966 28.6015 11.0048 30.5201 11.7997C32.4387 12.5947 34.0784 13.9408 35.232 15.6677C36.3855 17.3947 37.0011 19.4249 37.0007 21.5017C36.9976 24.2853 35.8903 26.9541 33.9218 28.9223C31.9533 30.8905 29.2844 31.9973 26.5007 32ZM26.5007 15.4316C25.3002 15.4316 24.1266 15.7876 23.1284 16.4546C22.1302 17.1216 21.3522 18.0696 20.8927 19.1788C20.4333 20.2879 20.3131 21.5084 20.5473 22.6859C20.7815 23.8634 21.3596 24.9449 22.2086 25.7938C23.0575 26.6428 24.1391 27.2209 25.3165 27.4551C26.494 27.6893 27.7145 27.5691 28.8236 27.1097C29.9328 26.6502 30.8808 25.8722 31.5478 24.874C32.2148 23.8758 32.5708 22.7022 32.5708 21.5017C32.569 19.8923 31.9289 18.3494 30.791 17.2115C29.653 16.0735 28.1101 15.4334 26.5007 15.4316Z" fill="#BE1622"/>
<path d="M26.5389 42C23.4934 41.9989 20.4902 41.2839 17.769 39.912C15.0478 38.5401 12.6838 36.5493 10.8656 34.0983C9.04751 31.6473 7.82551 28.8041 7.29713 25.7953C6.76875 22.7865 6.94861 19.6955 7.82236 16.7688L12.1259 18.0665C11.5565 19.9976 11.378 22.0236 11.6011 24.0249C11.8242 26.0263 12.4443 27.9627 13.4249 29.7199C14.4055 31.4772 15.7267 33.0199 17.3108 34.257C18.8948 35.4942 20.7096 36.4009 22.6484 36.9236C24.5871 37.4464 26.6105 37.5747 28.5994 37.301C30.5884 37.0272 32.5026 36.357 34.2293 35.3297C35.956 34.3024 37.4604 32.9389 38.6537 31.3195C39.847 29.7 40.7052 27.8574 41.1777 25.9002C34.2796 18.7349 25.9351 13.1308 16.7028 9.46312L16.6773 9.4512C16.1561 9.23662 15.6434 9.03908 15.1019 8.82791C14.5603 8.61674 14.0069 8.40217 13.4433 8.17057L15.1511 4C15.6723 4.21457 16.1833 4.41382 16.7248 4.62329C17.2664 4.83275 17.813 5.04732 18.3715 5.27723C28.5749 9.33148 37.7545 15.6061 45.2487 23.6488L46.0007 24.456L45.831 25.5459C45.0862 30.1387 42.737 34.3159 39.2035 37.3304C35.6699 40.3449 31.1826 42.0001 26.544 42H26.5389Z" fill="#1D1D1B"/>
</svg>
