<svg width="386" height="305" viewBox="0 0 386 305" fill="none" xmlns="http://www.w3.org/2000/svg">
<path d="M356.595 268.69C342.602 241.135 324.991 215.538 304.222 192.566C258.927 142.183 197.612 100.716 122.018 69.2178C54.7979 41.2343 1.19019 32.0616 0.659058 31.9636L6.11867 0C8.44084 0.391891 64.0125 9.91974 134.666 39.3361C214.806 72.6713 280.062 116.967 328.593 170.999C351.282 196.106 370.521 224.079 385.807 254.19L356.595 268.69Z" fill="#1D1D1B"/>
<path d="M193.233 232.381C178.141 232.381 163.388 227.909 150.84 219.53C138.292 211.151 128.512 199.241 122.737 185.308C116.962 171.374 115.452 156.042 118.397 141.251C121.342 126.459 128.611 112.873 139.283 102.21C149.955 91.5464 163.553 84.2853 178.355 81.3445C193.157 78.4038 208.499 79.9155 222.441 85.6886C236.384 91.4616 248.3 101.237 256.683 113.778C265.065 126.318 269.538 141.062 269.536 156.143C269.514 176.358 261.467 195.738 247.162 210.031C232.857 224.324 213.462 232.362 193.233 232.381ZM193.233 112.063C184.509 112.063 175.981 114.648 168.727 119.492C161.473 124.335 155.819 131.22 152.48 139.274C149.142 147.329 148.268 156.192 149.97 164.743C151.672 173.293 155.873 181.148 162.042 187.312C168.211 193.477 176.071 197.675 184.628 199.376C193.184 201.077 202.053 200.204 210.114 196.868C218.174 193.531 225.063 187.882 229.91 180.633C234.757 173.384 237.344 164.861 237.344 156.143C237.331 144.456 232.679 133.252 224.41 124.988C216.14 116.724 204.928 112.076 193.233 112.063Z" fill="#BE1622"/>
<path d="M193.511 305C171.379 304.992 149.555 299.8 129.78 289.838C110.005 279.875 92.8261 265.418 79.6137 247.619C66.4014 229.82 57.5212 209.173 53.6815 187.323C49.8418 165.474 51.1488 143.027 57.4983 121.774L88.7718 131.197C84.6338 145.221 83.3372 159.933 84.9584 174.467C86.5796 189.001 91.0859 203.062 98.2116 215.824C105.337 228.585 114.939 239.787 126.45 248.772C137.961 257.756 151.149 264.34 165.238 268.136C179.327 271.932 194.031 272.864 208.484 270.876C222.938 268.888 236.848 264.021 249.396 256.561C261.944 249.101 272.876 239.2 281.548 227.439C290.22 215.679 296.456 202.298 299.89 188.085C249.762 136.051 189.122 95.355 122.032 68.7205L121.847 68.6339C118.059 67.0757 114.334 65.6412 110.398 64.1077C106.463 62.5742 102.441 61.016 98.3451 59.3341L110.756 29.0479C114.543 30.6061 118.257 32.053 122.192 33.5741C126.127 35.0952 130.1 36.6534 134.159 38.3229C208.306 67.7645 275.014 113.33 329.473 171.736L334.939 177.598L333.705 185.512C328.293 218.864 311.221 249.199 285.543 271.09C259.865 292.981 227.256 305.001 193.548 305H193.511Z" fill="#1D1D1B"/>
</svg>
