<svg width="289" height="267" viewBox="0 0 289 267" fill="none" xmlns="http://www.w3.org/2000/svg">
<path d="M288.752 267H0V0H288.752V267ZM8.41137 258.558H280.304V8.46375H8.41137V258.558Z" fill="white"/>
<path d="M244.002 200.437C235.781 184.105 225.434 168.933 213.231 155.316C186.618 125.454 150.592 100.875 106.176 82.2057C66.6814 65.6194 35.1841 60.1826 34.8721 60.1245L38.0799 41.1791C39.4443 41.4114 72.0955 47.0587 113.608 64.4943C160.694 84.2527 199.035 110.508 227.55 142.534C240.881 157.415 252.185 173.995 261.166 191.842L244.002 200.437Z" fill="white"/>
<path d="M148.241 179.931C139.235 179.931 130.431 177.26 122.943 172.255C115.455 167.251 109.619 160.138 106.173 151.815C102.727 143.493 101.825 134.336 103.583 125.502C105.34 116.667 109.678 108.553 116.046 102.184C122.415 95.8149 130.529 91.4781 139.362 89.7217C148.195 87.9653 157.351 88.8682 165.671 92.3162C173.991 95.7643 181.101 101.603 186.104 109.093C191.106 116.583 193.775 125.389 193.774 134.396C193.76 146.47 188.959 158.045 180.422 166.582C171.886 175.118 160.312 179.919 148.241 179.931ZM148.241 108.069C143.035 108.069 137.945 109.613 133.617 112.506C129.288 115.399 125.914 119.511 123.922 124.321C121.929 129.132 121.408 134.426 122.424 139.533C123.439 144.64 125.946 149.331 129.628 153.013C133.309 156.695 137.999 159.202 143.105 160.218C148.212 161.234 153.504 160.713 158.314 158.72C163.124 156.727 167.235 153.353 170.127 149.023C173.02 144.694 174.563 139.604 174.563 134.396C174.556 127.416 171.78 120.724 166.845 115.788C161.91 110.853 155.22 108.076 148.241 108.069Z" fill="#BE1622"/>
<path d="M147.435 220.587C134.415 220.583 121.576 217.535 109.943 211.687C98.3099 205.84 88.204 197.354 80.4315 186.907C72.6589 176.46 67.4349 164.34 65.176 151.516C62.9172 138.691 63.6861 125.516 67.4214 113.041L85.819 118.572C83.3847 126.804 82.6219 135.439 83.5756 143.97C84.5293 152.5 87.1803 160.754 91.3722 168.244C95.5642 175.735 101.212 182.31 107.984 187.583C114.756 192.857 122.514 196.721 130.803 198.95C139.091 201.178 147.741 201.725 156.243 200.558C164.746 199.391 172.929 196.534 180.311 192.156C187.693 187.777 194.124 181.965 199.225 175.062C204.327 168.16 207.996 160.305 210.016 151.963C180.526 121.421 144.853 97.5342 105.385 81.9009L105.276 81.8501C103.048 80.9355 100.856 80.0934 98.5413 79.1934C96.2262 78.2933 93.8602 77.3787 91.4508 76.3915L98.7517 58.6147C100.98 59.5293 103.164 60.3786 105.479 61.2714C107.795 62.1642 110.131 63.0788 112.519 64.0588C156.139 81.3398 195.381 108.085 227.419 142.367L230.634 145.807L229.908 150.453C226.724 170.029 216.681 187.834 201.576 200.683C186.47 213.533 167.286 220.588 147.456 220.587H147.435Z" fill="white"/>
</svg>
