<svg width="89" height="63" viewBox="0 0 89 63" fill="none" xmlns="http://www.w3.org/2000/svg">
<path d="M85.5093 51.2409H43.4487V12.3126H85.5093V51.2409ZM44.6739 50.0101H84.2788V13.5466H44.6739V50.0101Z" fill="#1D1D1B"/>
<path d="M78.9909 41.5361C77.7933 39.1549 76.2861 36.9428 74.5086 34.9575C70.6321 30.6036 65.3844 27.0201 58.9147 24.2981C53.1617 21.8798 48.5737 21.0871 48.5282 21.0787L48.9955 18.3164C49.1942 18.3503 53.9503 19.1737 59.9972 21.7158C66.856 24.5965 72.4409 28.4245 76.5944 33.0938C78.5363 35.2635 80.1828 37.6809 81.4911 40.283L78.9909 41.5361Z" fill="#1D1D1B"/>
<path d="M65.0419 38.5463C63.7301 38.5463 62.4477 38.1569 61.357 37.4272C60.2662 36.6976 59.4161 35.6605 58.9142 34.4471C58.4122 33.2338 58.2809 31.8987 58.5369 30.6106C58.7929 29.3226 59.4247 28.1394 60.3524 27.2109C61.2801 26.2823 62.462 25.65 63.7486 25.3939C65.0353 25.1378 66.3689 25.2695 67.5808 25.7722C68.7927 26.2749 69.8285 27.1261 70.5572 28.2182C71.2859 29.3103 71.6747 30.5941 71.6745 31.9074C71.6725 33.6678 70.973 35.3554 69.7296 36.6C68.4862 37.8447 66.8003 38.5446 65.0419 38.5463ZM65.0419 28.0689C64.2836 28.0689 63.5423 28.294 62.9117 28.7158C62.2812 29.1376 61.7897 29.7371 61.4995 30.4385C61.2093 31.1399 61.1334 31.9117 61.2813 32.6563C61.4293 33.4009 61.7945 34.0849 62.3307 34.6217C62.8669 35.1585 63.5501 35.5241 64.2939 35.6722C65.0377 35.8203 65.8086 35.7443 66.5092 35.4538C67.2099 35.1633 67.8087 34.6713 68.23 34.04C68.6513 33.4088 68.8762 32.6666 68.8762 31.9074C68.8751 30.8897 68.4707 29.914 67.7519 29.1944C67.0331 28.4748 66.0585 28.07 65.0419 28.0689Z" fill="#BE1622"/>
<path d="M64.9246 44.474C63.0281 44.4733 61.158 44.029 59.4634 43.1764C57.7689 42.3238 56.2968 41.0866 55.1646 39.5634C54.0325 38.0402 53.2715 36.2732 52.9425 34.4034C52.6134 32.5336 52.7254 30.6127 53.2695 28.7938L55.9494 29.6003C55.5948 30.8004 55.4837 32.0594 55.6226 33.3032C55.7615 34.547 56.1477 35.7503 56.7583 36.8424C57.3689 37.9345 58.1917 38.8932 59.1781 39.6621C60.1645 40.4309 61.2946 40.9944 62.5019 41.3192C63.7092 41.6441 64.9692 41.7239 66.2077 41.5537C67.4462 41.3836 68.6382 40.9671 69.7135 40.3287C70.7887 39.6903 71.7255 38.8429 72.4686 37.8365C73.2117 36.8301 73.7461 35.6849 74.0403 34.4686C69.7448 30.0157 64.5485 26.533 58.7995 24.2536L58.7836 24.2462C58.4591 24.1129 58.1398 23.9901 57.8026 23.8589C57.4654 23.7276 57.1207 23.5943 56.7697 23.4504L57.8332 20.8585C58.1578 20.9919 58.476 21.1157 58.8132 21.2459C59.1504 21.376 59.4908 21.5094 59.8386 21.6523C66.1924 24.1718 71.9087 28.0713 76.5754 33.0695L77.0437 33.5711L76.938 34.2485C76.4742 37.1027 75.0113 39.6986 72.8109 41.572C70.6106 43.4454 67.8162 44.4741 64.9277 44.474H64.9246Z" fill="#1D1D1B"/>
<path d="M3.32156 14.243H6.45388C8.23517 14.243 9.22043 15.2399 9.22043 16.8549C9.22043 18.1799 8.58615 18.8054 8.00155 19.0213C8.74155 19.3187 9.53124 20.0045 9.53124 21.5666C9.53124 23.5223 8.26266 24.623 6.40314 24.623H3.32156V14.243ZM6.02574 18.4149C7.20657 18.4149 7.55332 17.9481 7.55332 17.0126C7.55332 16.077 7.05646 15.6241 6.10714 15.6241H5.02251V18.4149H6.02574ZM5.02251 23.262H6.22871C7.21292 23.262 7.78906 22.7392 7.78906 21.5401C7.78906 20.414 7.28586 19.7769 6.02574 19.7769H5.02251V23.262Z" fill="#1D1D1B"/>
<path d="M12.58 20.1378V24.623H10.8569V14.243H14.0103C15.873 14.243 16.9344 15.2261 16.9344 17.0475C16.9344 18.5525 16.1405 19.2044 15.5601 19.4266C16.4058 19.797 16.7727 20.5199 16.7727 22.0238V22.427C16.7727 23.5509 16.8234 24.0653 16.9133 24.623H15.2356C15.0865 24.1499 15.0611 23.316 15.0611 22.4069V22.0418C15.0611 20.6479 14.7366 20.1368 13.5071 20.1368L12.58 20.1378ZM12.58 18.7239H13.5843C14.7271 18.7239 15.1996 18.2138 15.1996 17.1258C15.1996 16.1987 14.744 15.6558 13.7609 15.6558H12.58V18.7239Z" fill="#1D1D1B"/>
<path d="M23.5595 19.9441H20.127V23.1276H23.9676L23.7509 24.623H18.4155V14.243H23.7213V15.7606H20.127V18.4371H23.5595V19.9441Z" fill="#1D1D1B"/>
<path d="M27.0206 21.8894L26.4445 24.623H24.7097C24.7266 24.5722 27.1644 14.3001 27.1834 14.243H29.4341L31.9522 24.623H30.1286L29.5462 21.8894H27.0206ZM29.229 20.3834C28.784 18.2805 28.4488 16.7956 28.286 15.8326H28.2448C28.1074 16.7935 27.7511 18.4117 27.3336 20.3834H29.229Z" fill="#1D1D1B"/>
<path d="M32.9163 14.243H34.6279V18.9948C35.2695 17.9989 36.6819 15.6262 37.5773 14.243H39.5859L36.7887 18.3355L39.6482 24.623H37.7084L35.6078 19.7621L34.6289 21.0998V24.623H32.9163V14.243Z" fill="#1D1D1B"/>
<path d="M17.5327 43.4231H14.1002V46.6065H17.9408L17.7241 48.1009H12.3887V37.7219H17.6945V39.2395H14.1002V41.916H17.5327V43.4231Z" fill="#1D1D1B"/>
<path d="M21.1429 48.1009V44.3586C21.144 44.2486 21.1194 44.1399 21.071 44.0411L18.4091 37.7261H20.349C20.9685 39.3697 21.7508 41.4546 22.0711 42.5447C22.4686 41.3054 23.2445 39.2882 23.8058 37.724H25.6368L22.94 44.0538C22.8971 44.1592 22.8769 44.2724 22.8808 44.3862V48.1009H21.1429Z" fill="#1D1D1B"/>
<path d="M31.4522 43.4231H28.0196V46.6065H31.8602L31.6435 48.1009H26.3081V37.7219H31.615V39.2395H28.0207V41.916H31.4532L31.4522 43.4231Z" fill="#1D1D1B"/>
<path d="M34.3942 45.217C34.4883 46.125 34.8847 46.8912 35.8742 46.8912C36.8383 46.8912 37.2242 46.3166 37.2242 45.4657C37.2242 44.5619 36.7908 44.057 35.4461 43.4326C33.6584 42.6124 32.9502 41.8652 32.9502 40.3328C32.9502 38.6966 34.0189 37.5642 35.8679 37.5642C38.1481 37.5642 38.7475 39.0998 38.7845 40.446H37.0825C37.0202 39.8534 36.8489 38.94 35.834 38.94C35.0359 38.94 34.6796 39.4533 34.6796 40.1846C34.6796 40.9805 35.0444 41.3488 36.295 41.9108C38.1978 42.7669 38.9928 43.6221 38.9928 45.3069C38.9928 46.9441 37.9906 48.2702 35.8214 48.2702C33.5009 48.2702 32.7356 46.797 32.6626 45.218L34.3942 45.217Z" fill="#1D1D1B"/>
<path d="M25.5618 26.4581H23.5088V25.7702H28.3484V26.4581H26.3071V36.0466H25.5671L25.5618 26.4581Z" fill="#1D1D1B"/>
<path d="M29.3368 25.7702H30.0832V30.2226H33.2916V25.7702H34.0401V36.0466H33.2948V30.9031H30.0832V36.0466H29.3368V25.7702Z" fill="#1D1D1B"/>
<path d="M39.7095 30.9031H36.7094V35.3692H40.0415L39.9284 36.0519H35.9651V25.7702H39.8702V26.4581H36.7094V30.2152H39.7095V30.9031Z" fill="#1D1D1B"/>
</svg>
